<svg xmlns="http://www.w3.org/2000/svg" viewBox="0 0 120.39 140.05"><defs><style>.cls-1{fill:#4d2557;}.cls-2{fill:#d886af;}.cls-3{fill:#e7eef9;}.cls-4{fill:#37153f;}</style></defs><g id="Camada_2" data-name="Camada 2"><g id="OBJECTS"><path class="cls-1" d="M0,62.2a314.45,314.45,0,0,1,10.37,55.94c17.57,4.1,35.46,10.65,49.83,21.91,0-17.54,0-58.85,0-58.85C52.47,72.36,16.88,59.91,0,62.2Z"/><path class="cls-2" d="M60.2,79.4S42.55,61.26,5.37,59.81l-1.44-6.1S47.34,56.29,60.2,79.4Z"/><path class="cls-3" d="M60.2,76.18s-14.33-21.29-51.15-25L7.88,45.32S43,48.64,60.2,76.18Z"/><path class="cls-4" d="M120.39,62.2A315.35,315.35,0,0,0,110,118.14c-17.56,4.11-35.45,10.65-49.82,21.91V81.2C67.92,72.36,103.51,59.91,120.39,62.2Z"/><path class="cls-2" d="M60.2,79.4S77.84,61.26,115,59.81l1.44-6.1S73.06,56.3,60.2,79.4Z"/><path class="cls-3" d="M60.2,76.18s14.32-21.29,51.14-25l1.17-5.86S77.35,48.64,60.2,76.18Z"/><path class="cls-2" d="M47,46c-6.39.09-6.39-10,0-9.86C53.38,36,53.38,46.08,47,46Zm0-8.51c-4.65-.06-4.65,7.23,0,7.16S51.64,37.42,47,37.48Z"/><path class="cls-3" d="M87.88,41.74c-8.32.11-8.32-12.94,0-12.83C96.2,28.8,96.2,41.85,87.88,41.74Zm0-11.48c-6.57-.09-6.57,10.22,0,10.13C94.45,40.48,94.45,30.17,87.88,30.26Z"/><path class="cls-1" d="M24.79,40.49c-3.29,0-3.29-5.11,0-5.07S28.08,40.54,24.79,40.49Zm0-3.72a1.19,1.19,0,0,0,0,2.38A1.19,1.19,0,0,0,24.79,36.77Z"/><path class="cls-2" d="M71.64,21.75c-.69-.42-3.2-1-3.29-2-.26-1.21-.54-5.09-2.64-3.3-.61.53-1.9,2.75-2.9,2.51-4.46-.85-5.15.16-2.52,3.9.63.8-.89,2.91-1.1,3.67-.77,2.64,2.87,1.33,4.09,1.06,1-.35,2.49,1.75,3.15,2.19,3.09,1.7,1.39-3.64,2.89-4.52C70.39,24.66,74,23.19,71.64,21.75Z"/><path class="cls-3" d="M40,2.19c-1.19.17-4.59,1.92-5.64.83C29.3-1.65,27.89-1,28.08,5.87c.15,1.51-3.45,2.93-4.33,3.71-3.07,2.69,2.54,4,4.28,4.62,1.48.32,1.72,4.18,2.19,5.26,2.51,4.61,4.66-3.45,7.23-3.33,1.85.08,7.54,1.12,5.75-2.57-.53-1.08-3.24-3.77-2.53-5.11C41.32,6.72,44.07,1.64,40,2.19Z"/><path class="cls-4" d="M62.58,54.23c-.6,0-2.4.76-2.88.16-2.27-2.57-3.14-2.28-3.3,1.16,0,.77-1.87,1.33-2.35,1.68-1.67,1.22,1.1,2.12,2,2.52.73.23.68,2.19.87,2.75,1.06,2.44,2.51-1.53,3.8-1.36.93.13,3.75.91,3-1-.22-.56-1.47-2-1-2.69C63,56.57,64.66,54.13,62.58,54.23Z"/><path class="cls-4" d="M114,20.77c-.7-.58-3.42-1.62-3.33-2.77-.09-1.4.25-5.8-2.4-4.15-.78.49-2.6,2.75-3.67,2.31-4.93-1.7-5.78-.77-3.5,3.94.57,1-1.49,3.1-1.86,3.91-1.31,2.83,3,2,4.4,1.9,1.13-.23,2.49,2.38,3.15,3,2.28,2.12,2.81-2.23,3.16-3.6C110.48,23.4,116.83,23.63,114,20.77Z"/><path class="cls-4" d="M72.37,39.19a1.23,1.23,0,0,1-2.46,0A1.23,1.23,0,0,1,72.37,39.19Z"/><path class="cls-3" d="M16.23,19.57a1.24,1.24,0,0,1-2.47,0A1.24,1.24,0,0,1,16.23,19.57Z"/><path class="cls-3" d="M91.88,13.85c.05,3.25-5,3.25-5,0S91.93,10.61,91.88,13.85Z"/><path class="cls-2" d="M43.88,24.35c0,2.6-4,2.6-4,0S43.92,21.76,43.88,24.35Z"/></g></g></svg>