<svg xmlns="http://www.w3.org/2000/svg" viewBox="0 0 500 500"><defs><style>.cls-1{isolation:isolate;}.cls-2,.cls-24{fill:#8ac6d1;}.cls-3{fill:#7bbdc6;}.cls-13,.cls-4{fill:#fff;}.cls-5{fill:#4ba8af;}.cls-6{fill:#62d1d3;}.cls-7{fill:#c8e895;}.cls-8{fill:#aece6f;}.cls-9{fill:#95af56;}.cls-10{fill:#2b2b5e;opacity:0.1;}.cls-10,.cls-20,.cls-22,.cls-24,.cls-27,.cls-37{mix-blend-mode:multiply;}.cls-11{fill:#65ccce;opacity:0.46;mix-blend-mode:screen;}.cls-12,.cls-37{fill:#353b7c;}.cls-13{font-size:23.87px;}.cls-13,.cls-14,.cls-15{font-family:Baloo;}.cls-14{font-size:23.85px;}.cls-14,.cls-29{fill:#2f3e77;}.cls-15{font-size:24.64px;}.cls-15,.cls-35{fill:#fff188;}.cls-16{letter-spacing:-0.01em;}.cls-17{letter-spacing:-0.08em;}.cls-18,.cls-22{fill:#964b41;}.cls-19{fill:#f4ba8e;}.cls-20,.cls-27{fill:#f29e8f;}.cls-20{opacity:0.54;}.cls-21{opacity:0.5;}.cls-23{fill:#282a33;}.cls-24{opacity:0.31;}.cls-25{fill:#a85951;}.cls-26{fill:#2b3860;}.cls-27,.cls-37{opacity:0.26;}.cls-28{fill:#8e3636;}.cls-30{fill:#a34646;}.cls-31{fill:#ffd685;}.cls-32{fill:#772929;}.cls-33,.cls-34{fill:none;stroke-linecap:round;stroke-linejoin:round;stroke-width:2px;stroke-dasharray:0 5;}.cls-33{stroke:#353b7c;}.cls-34{stroke:#fff;}.cls-36{fill:#4b549b;}.cls-38{fill:#ef5e81;}.cls-39{fill:#f4abab;}.cls-40{fill:#c8e4e8;}.cls-41{fill:#eab268;}.cls-42{fill:#f2cf81;}.cls-43{fill:#ba2f5d;}</style></defs><g class="cls-1"><g id="Camada_2" data-name="Camada 2"><g id="BACKGROUND"><rect class="cls-2" width="500" height="500"/><circle class="cls-3" cx="250.41" cy="250.13" r="226.41"/></g><g id="OBJECTS"><path class="cls-4" d="M313.48,323.45l122.71-1.91s-22.31-1-28.05-9.25-15.3-9.88-22.79-1.59c0,0-4.62-15.94-18-16.26s-18.17,16.9-18.17,16.9-.31-13.07-4.46-13.39-5.42,9.24-5.42,9.24,1.28-31.87-16.89-30.6S313.48,323.45,313.48,323.45Z"/><path class="cls-5" d="M370.15,344.15c0,2.74-.1,5.47-.3,8.16A112.5,112.5,0,0,1,257.64,456.66a113,113,0,0,1-22.38-2.23,110.73,110.73,0,0,1-22.58-7.12,112.51,112.51,0,0,1-67.28-95.38c-.18-2.57-.27-5.17-.27-7.78a112.77,112.77,0,0,1,3.74-28.89h0a112.42,112.42,0,0,1,108.76-83.62,113.86,113.86,0,0,1,15.55,1.06c3,.42,6,1,9,1.62a111.43,111.43,0,0,1,32.72,13,112.38,112.38,0,0,1,55.27,96.88Z"/><path class="cls-6" d="M321,361.25a12.33,12.33,0,0,1-12.85.45,0,0,0,0,0,0,.06,11.33,11.33,0,0,0,13.09-.17C321.42,361.44,321.26,361.12,321,361.25Z"/><path class="cls-6" d="M322.87,363.07c-.88.42-1.68,1-2.56,1.43s-2,.81-3,1.23c-.06,0-.06.15,0,.14a9.61,9.61,0,0,0,5.9-2.35C323.47,363.28,323.16,362.94,322.87,363.07Z"/><path class="cls-6" d="M310,315.77a15.75,15.75,0,0,1-10.3-1c-.28-.13-.65.24-.37.48a10.15,10.15,0,0,0,11,1.35C310.8,316.35,310.46,315.68,310,315.77Z"/><path class="cls-6" d="M311.55,318.82a13.85,13.85,0,0,1-1.66.76.13.13,0,0,0,.07.24,3.9,3.9,0,0,0,1.76-.78C311.85,318.92,311.69,318.75,311.55,318.82Z"/><path class="cls-6" d="M263.49,327.16a23.48,23.48,0,0,1-1.36-3.23,13.09,13.09,0,0,1-.19-3.8.21.21,0,0,0-.38-.11c-1.16,2.2-.82,5.93,1.19,7.57C263.05,327.84,263.68,327.62,263.49,327.16Z"/><path class="cls-6" d="M245.05,298.05c-2.09-1.65-4.68-2.66-6.9-4.16-2.54-1.71-4.29-4.16-6.26-6.46-.16-.19-.48.05-.35.26,3.12,4.85,7.19,9.58,13.06,11.14C245,298.93,245.43,298.35,245.05,298.05Z"/><path class="cls-6" d="M247.38,298.6a.62.62,0,0,0,0,1.23A.62.62,0,0,0,247.38,298.6Z"/><path class="cls-6" d="M205.94,359c-2.49,1.44-4.66,3.16-7.38,4.21a58.87,58.87,0,0,1-7.41,1.93c-.05,0,0,.07,0,.08,5.08.65,11.85-1.73,15.24-5.62A.38.38,0,0,0,205.94,359Z"/><path class="cls-6" d="M207.79,355.64a.57.57,0,0,0,0,1.14A.57.57,0,0,0,207.79,355.64Z"/><path class="cls-6" d="M177.14,357.45a14.51,14.51,0,0,0-7.87-4.63c-.4-.07-.67.45-.29.67,1.3.76,2.69,1.3,4,2s2.52,1.61,3.83,2.34A.27.27,0,0,0,177.14,357.45Z"/><path class="cls-6" d="M275.71,439.59c-3.51,1.14-5,7.22-5.24,10.4a.52.52,0,0,0,1,.26,42.51,42.51,0,0,0,1.68-5.49,18,18,0,0,1,2.78-4.94C276,439.71,275.84,439.55,275.71,439.59Z"/><path class="cls-6" d="M278.19,437.18a.68.68,0,0,0,0,1.35A.68.68,0,0,0,278.19,437.18Z"/><path class="cls-6" d="M328.06,398c-4-1.42-10.14-1.16-13.6,1.43-.15.11-.07.41.14.33a20,20,0,0,1,6.52-1.42c2.3-.05,4.57.59,6.84.4A.38.38,0,0,0,328.06,398Z"/><path class="cls-6" d="M331,397.48a.5.5,0,0,0,0,1A.5.5,0,0,0,331,397.48Z"/><path class="cls-7" d="M329.18,289.68a26.84,26.84,0,0,1-9.25,20c-3.15,2.69-7.15,4.68-11.3,4.46a15.28,15.28,0,0,1-7.79-2.92c-.67-.47-1.45-1-2.25-.78a2.81,2.81,0,0,0-1.25,1.1,22.24,22.24,0,0,1-17.25,8.54,9.29,9.29,0,0,1-4.76,7.82,7.37,7.37,0,0,1-8.76-1.54c-2.35-2.78-1.85-6.47-1.4-10.26,0,0,0,0,0,0a20.08,20.08,0,0,0,0-7.69c-1.06-3.87-4.49-6.66-8.09-8.42s-7.56-2.78-11.1-4.69A36,36,0,0,1,235.34,286c-6.54-8-11.15-17.84-11.87-28.16a37.54,37.54,0,0,1,5.36-22.4c1.1-.29,2.2-.57,3.31-.82a112.79,112.79,0,0,1,82.74,12.72c-1.52,5.1-4.14,10.23-2,14.95,1.42,3.13,4.59,5,7.19,7.28A26.82,26.82,0,0,1,329.18,289.68Z"/><path class="cls-8" d="M265.18,316.09a20.08,20.08,0,0,0,0-7.69c-1.06-3.87-4.49-6.66-8.09-8.42s-7.56-2.78-11.1-4.69A36,36,0,0,1,235.34,286c-6.54-8-11.15-17.84-11.87-28.16a37.54,37.54,0,0,1,5.36-22.4c1.1-.29,2.2-.57,3.31-.82-3.9,7.12-9.31,21.22-2.92,36.87,9,22,28.77,22,34,27.8C268.14,304.85,265.44,315.14,265.18,316.09Z"/><path class="cls-7" d="M370.15,344.15c0,2.1-.06,4.2-.18,6.28,0,.63-.07,1.25-.12,1.88a19.28,19.28,0,0,1-4.85-.25c-3.57-.66-6.9-2.29-10.38-3.28s-7.44-1.35-10.6.44c-4.52,2.55-6.49,8.88-11.52,10.12-3.39.84-6.88-1-10.36-.84s-7.05,2.54-10.63,1.94a1.18,1.18,0,0,1-.65-.27c-.38-.34-.26-1,0-1.43h0a5.93,5.93,0,0,1,6.06-3.28,21.83,21.83,0,0,1,9.7-13.77c3-1.87,6.57-3.05,8.82-5.79s2.76-6.77,3.08-10.46c.25-2.77.5-5.55.74-8.32.5-5.64,1.35-11.94,5.82-15.39a13.86,13.86,0,0,1,10.13-2.27,29.38,29.38,0,0,1,6.43,1.66A112,112,0,0,1,370.15,344.15Z"/><path class="cls-8" d="M370,350.43c0,.63-.07,1.25-.12,1.88a19.28,19.28,0,0,1-4.85-.25c-3.57-.66-6.9-2.29-10.38-3.28s-7.44-1.35-10.6.44c-4.52,2.55-6.49,8.88-11.52,10.12-3.39.84-6.88-1-10.36-.84s-7.05,2.54-10.63,1.94a1.18,1.18,0,0,1-.65-.27c-.38-.34-.26-1,0-1.43h0c.93.58,2.7,1,5.87-.27,5.62-2.22,10.79.82,14.78,0s7.68-11.72,17.88-12.16C356.68,346,364.15,349.21,370,350.43Z"/><path class="cls-7" d="M348.47,410.54A112.32,112.32,0,0,1,279,454.61c-1.19.24-2.39.45-3.59.64,0-.32-.09-.63-.12-.95A21.33,21.33,0,0,1,283,436c3.33-2.68,7.61-4.48,9.7-8.21,2.94-5.23-.06-12.28-5.14-15.49-3-1.91-7-3.31-7.81-6.78a5.56,5.56,0,0,1,2.05-5.36,11.41,11.41,0,0,1,5.68-2.66,19.3,19.3,0,0,1,15.19,4.18c2,1.69,4.08,4,6.72,3.81,1.72-.1,3.18-1.23,4.67-2.09,6.18-3.6,13.93-2.92,20.9-1.31A22.73,22.73,0,0,1,348.47,410.54Z"/><path class="cls-8" d="M295.84,428.55c-2.44,7.44-12.3,10.26-15.1,17.57-1,2.71-.95,5.72-1.75,8.49-1.19.24-2.39.45-3.59.64,0-.32-.09-.63-.12-.95A21.33,21.33,0,0,1,283,436c3.33-2.68,7.61-4.48,9.7-8.21,2.94-5.23-.06-12.28-5.14-15.49-3-1.91-7-3.31-7.81-6.78a5.56,5.56,0,0,1,2.05-5.36,4.8,4.8,0,0,0-.1,1.81c.36,2.56,2.28,4.63,4.36,6.18s4.4,2.8,6.2,4.66a16.38,16.38,0,0,1,4.12,10.18A14.52,14.52,0,0,1,295.84,428.55Z"/><path class="cls-7" d="M190,361.25c-5.09-.63-9-4.47-13-7.28a19.87,19.87,0,0,0-14.28-3.81c-5.72.62-11.42,2.73-17.22,1.77,0-.59-.08-1.17-.11-1.76q-.16-3-.16-6a112.77,112.77,0,0,1,3.74-28.89h0a31.37,31.37,0,0,1,9.72-3.35,16.74,16.74,0,0,1,4.94-.18c4.91.72,8.57,4.75,11.69,8.6a5.56,5.56,0,0,1,3.4-1.6c3.9-.42,7.33,2.64,9.38,6s3.33,7.19,6,10.1a30.35,30.35,0,0,0,2.78,2.67c2.68,2.34,5.5,4.41,7.24,7.82C209.09,355.36,199.69,362.46,190,361.25Z"/><path class="cls-8" d="M190,361.25c-5.09-.63-9-4.47-13-7.28a19.87,19.87,0,0,0-14.28-3.81c-5.72.62-11.42,2.73-17.22,1.77,0-.59-.08-1.17-.11-1.76,1.36-.07,2.74-.07,4.07-.27,2.9-.43,5.72-1.22,8.59-1.79a24.37,24.37,0,0,1,9.58-.4c3.64.73,6.86,2.74,10.09,4.55q3.45,1.94,7,3.6a24.46,24.46,0,0,0,8.32,2.61,9.84,9.84,0,0,0,8-2.7c2.41-2.6,2.65-6.66,1.47-10s-3.38-5.85-5.72-8.3c2.68,2.34,5.5,4.41,7.24,7.82C209.09,355.36,199.69,362.46,190,361.25Z"/><path class="cls-9" d="M241.11,267.63a26.43,26.43,0,0,1-.4-2.67c0-.45-.76-.46-.72,0,.13,1.53.19,3.64,1.08,4.92a.23.23,0,0,0,.43-.12A8.77,8.77,0,0,0,241.11,267.63Z"/><path class="cls-9" d="M243,266.27a.25.25,0,0,0-.5,0,6.74,6.74,0,0,0-.07,2.28.34.34,0,0,0,.65,0A7,7,0,0,0,243,266.27Z"/><path class="cls-9" d="M244,267.64a4.66,4.66,0,0,0-.42,2.09.42.42,0,0,0,.76.09,4.71,4.71,0,0,0,.31-2.09C244.68,267.35,244.1,267.29,244,267.64Z"/><path class="cls-9" d="M299.83,284.44a6.08,6.08,0,0,1-.3-1.26.28.28,0,0,0-.55,0c-.05.76-.05,2.06.57,2.61a.39.39,0,0,0,.66-.28A3.91,3.91,0,0,0,299.83,284.44Z"/><path class="cls-9" d="M302.3,283.61a.28.28,0,0,0-.55,0c-.07.78-.44,1.94,0,2.65a.34.34,0,0,0,.57,0C302.75,285.55,302.37,284.39,302.3,283.61Z"/><path class="cls-9" d="M305.21,283.39a.31.31,0,0,0-.61.08,6,6,0,0,1-.16,1.64,5.92,5.92,0,0,0-.32,1.43.42.42,0,0,0,.7.29C305.68,286,305.51,284.39,305.21,283.39Z"/><path class="cls-9" d="M282.63,261.17a.28.28,0,0,0-.56,0,9.17,9.17,0,0,0,.05,2,.24.24,0,0,0,.46,0A8,8,0,0,0,282.63,261.17Z"/><path class="cls-9" d="M284.62,261.26l-.35,1.4a5.22,5.22,0,0,0-.27,1.28c0,.24.37.37.48.13a11.62,11.62,0,0,0,.58-2.69C285.11,261.1,284.69,261,284.62,261.26Z"/><path class="cls-9" d="M279.34,297.75a.34.34,0,0,0-.67,0,8,8,0,0,0,.28,3.49c.1.23.43.13.49-.07A7.91,7.91,0,0,0,279.34,297.75Z"/><path class="cls-9" d="M281.32,298.25a8.8,8.8,0,0,0-.75,3.44.34.34,0,0,0,.62.17,8.68,8.68,0,0,0,.82-3.42A.36.36,0,0,0,281.32,298.25Z"/><path class="cls-9" d="M282.87,299.88a8.3,8.3,0,0,0-1.12,3,.33.33,0,0,0,.56.23,8.39,8.39,0,0,0,1.29-2.91A.4.4,0,0,0,282.87,299.88Z"/><path class="cls-9" d="M160.37,332.54a.2.2,0,0,0-.39.11,10.31,10.31,0,0,0,.74,3.06.18.18,0,0,0,.34-.09A10.34,10.34,0,0,0,160.37,332.54Z"/><path class="cls-9" d="M162.82,334.15a12.44,12.44,0,0,0-.28-1.35c-.07-.3-.57-.24-.53.07a8.44,8.44,0,0,1,0,1.33c0,.19,0,.38,0,.57a2.59,2.59,0,0,0,.1.67c.08.35.55.28.65,0a1.57,1.57,0,0,0,.16-.67C162.88,334.57,162.85,334.35,162.82,334.15Z"/><path class="cls-9" d="M164.46,333.89a.3.3,0,0,0-.6,0,5.82,5.82,0,0,0-.05.6,2.13,2.13,0,0,0,.1.49.26.26,0,0,0,.51,0,4.26,4.26,0,0,0,.1-.49A5.8,5.8,0,0,0,164.46,333.89Z"/><path class="cls-9" d="M166.07,318.84l-.09-1.42a.22.22,0,0,0-.43,0c0,.47-.06.94-.1,1.42a2.87,2.87,0,0,0,.07,1.27.26.26,0,0,0,.49,0A2.72,2.72,0,0,0,166.07,318.84Z"/><path class="cls-9" d="M166.94,319.3a3.8,3.8,0,0,0-.51,1.47.35.35,0,0,0,.64.17,3.65,3.65,0,0,0,.44-1.4C167.59,319.21,167.08,319,166.94,319.3Z"/><path class="cls-9" d="M180.92,337.31a.32.32,0,0,0-.62.08,6.68,6.68,0,0,1-.08,1.41,4.59,4.59,0,0,0-.16,1.22c0,.25.34.44.53.22A3.45,3.45,0,0,0,180.92,337.31Z"/><path class="cls-9" d="M181.93,339.06a4.15,4.15,0,0,0-.34,1.55.27.27,0,0,0,.5.14,4.11,4.11,0,0,0,.38-1.54A.28.28,0,0,0,181.93,339.06Z"/><path class="cls-9" d="M302.36,412.46a10.27,10.27,0,0,1-.23-1.91.27.27,0,0,0-.53,0c-.07,1.08-.19,2.72.51,3.63a.29.29,0,0,0,.54-.15A5.65,5.65,0,0,0,302.36,412.46Z"/><path class="cls-9" d="M303.78,411.63c-.29.75-.77,1.84-.44,2.63a.28.28,0,0,0,.51.07,2.42,2.42,0,0,0,.28-1.13,11.1,11.1,0,0,1,.25-1.4A.31.31,0,0,0,303.78,411.63Z"/><path class="cls-9" d="M305.39,412.47a14.69,14.69,0,0,1-.66,1.39c-.21.4-.44.72-.3,1.18a.31.31,0,0,0,.37.22c.52-.13.68-.58.87-1a12.07,12.07,0,0,0,.48-1.55A.39.39,0,0,0,305.39,412.47Z"/><path class="cls-9" d="M305.77,433.45c-.17-.57-.36-1.14-.56-1.7a.26.26,0,0,0-.5.14c.1.59.21,1.17.34,1.76a5.83,5.83,0,0,0,.44,1.56.36.36,0,0,0,.67-.18A5.54,5.54,0,0,0,305.77,433.45Z"/><path class="cls-9" d="M308.47,433.93a9.05,9.05,0,0,1-.08-1.38c0-.41-.67-.52-.74-.1-.12.75-.43,2.21.31,2.71a.31.31,0,0,0,.42-.11A1.54,1.54,0,0,0,308.47,433.93Z"/><path class="cls-9" d="M310.29,432.75c-.16.9-.67,1.85-.45,2.77a.21.21,0,0,0,.3.12c.83-.63.82-1.83.87-2.79A.37.37,0,0,0,310.29,432.75Z"/><path class="cls-9" d="M335.8,342.71c-.11-.33-.69-.3-.64.08a5,5,0,0,0,.59,2.56.34.34,0,0,0,.57-.15A4.87,4.87,0,0,0,335.8,342.71Z"/><path class="cls-9" d="M338.13,342.87c-.12.49-.24,1-.35,1.47a2.64,2.64,0,0,0,0,1.25.2.2,0,0,0,.36.05,2.68,2.68,0,0,0,.34-1.2c0-.51,0-1,0-1.51A.21.21,0,0,0,338.13,342.87Z"/><path class="cls-9" d="M340.92,342.41c-.09-.38-.63-.21-.58.16.09.56-.22,1-.31,1.48,0,.14.09.32.25.25C341,344,341.06,343.08,340.92,342.41Z"/><path class="cls-9" d="M352.21,323.54c0-.38-.63-.4-.61,0a9.73,9.73,0,0,0,.26,2.41c.08.29.45.2.49-.07A9.21,9.21,0,0,0,352.21,323.54Z"/><path class="cls-9" d="M354.47,324.62c-.14.52-.49,1.23-.3,1.76a.3.3,0,0,0,.49.13c.41-.4.4-1.16.5-1.7S354.59,324.17,354.47,324.62Z"/><path class="cls-10" d="M370.46,344.15c0,2.74-.1,5.47-.3,8.16A112.5,112.5,0,0,1,258,456.66a113,113,0,0,1-22.38-2.23A120,120,0,0,0,273.5,232.7a111.68,111.68,0,0,1,41.69,14.57,112.38,112.38,0,0,1,55.27,96.88Z"/><path class="cls-11" d="M155.59,348.22a114.44,114.44,0,0,0,57.09,99.09,112.51,112.51,0,0,1-67.28-95.38c-.18-2.57-.27-5.17-.27-7.78a112.77,112.77,0,0,1,3.74-28.89h0a112.42,112.42,0,0,1,108.76-83.62,113.86,113.86,0,0,1,15.55,1.06c3,.42,6,1,9,1.62a117,117,0,0,0-12.05-.62A114.52,114.52,0,0,0,155.59,348.22Z"/><circle class="cls-12" cx="237.45" cy="338.37" r="5.77"/><circle class="cls-12" cx="279.47" cy="338.37" r="5.77"/><path class="cls-12" d="M251.15,338.93a14,14,0,0,0,3,3.93,8.36,8.36,0,0,0,2,1.23,7,7,0,0,0,3.41.36,5,5,0,0,0,1.08-.32,4.56,4.56,0,0,0,1.84-1.31,10.54,10.54,0,0,0,2.09-4.45,7.93,7.93,0,0,1-1.29,5.08,5.6,5.6,0,0,1-4.89,2.37,7,7,0,0,1-2.73-.6,7.94,7.94,0,0,1-2.21-1.62A9.53,9.53,0,0,1,251.15,338.93Z"/><path class="cls-10" d="M239.94,349.4a3.46,3.46,0,1,1-3.46-3.46A3.46,3.46,0,0,1,239.94,349.4Z"/><path class="cls-10" d="M282.05,349.4a3.46,3.46,0,1,1-3.46-3.46A3.46,3.46,0,0,1,282.05,349.4Z"/><text class="cls-13" transform="translate(184.22 385.52)">WORLD</text><text class="cls-14" transform="translate(270.8 384.72)">BOOK</text><text class="cls-15" transform="translate(236.98 408.19)"><tspan class="cls-16">D</tspan><tspan class="cls-17" x="16.06" y="0">A</tspan><tspan x="29.2" y="0">Y</tspan></text><path class="cls-18" d="M284.63,101.27c-1.21,3-3.81,6.62-8.49,10.81-.81.73-1.69,1.47-2.63,2.23l-.14.12h0c-25,20.11-82.88,16.81-82.88,16.81a25.23,25.23,0,0,1-4.33,1.76c-4.55,1.39-11.64,2.15-16-4.23-6.86-10,4.05-17.78,4.05-17.78s-5-7.78,4.21-14.49c-1,.76-6.16-2.47-6.94-3.06-4.41-3.31-3.33-9.15.66-12.36a13.6,13.6,0,0,1,7.55-2.62c4-.3,7.91.53,11.88.24,1.85-.15,5.58-.1,7.33-.58a15.09,15.09,0,0,1-5.16-9.41c-.42-3.49.63-7.35,3.44-9.48.46,3,.7,6.07,1.06,9.1.21,1.74.23,3.5.56,5.23.13.66.55,3.89,1,4.39,1.24-3.43,5.52-14.16,7.6-19.54a25,25,0,0,1,.84,9.25,15.67,15.67,0,0,1-4.37,8.57c.09-.09,3.7.12,5.47,0a16.41,16.41,0,0,0,5.21-1.27c3.22-1.41,5.32-3.77,7.85-6.19,4.27-4.09,8-8.93,13.27-11.87A43.17,43.17,0,0,1,249.77,52c9.64-1.6,20.53.5,25.51,9.77,3.21,6,3.45,13.18,2.65,20-.23,1.82-.52,3.6-.85,5.33C277.08,87,288.74,91,284.63,101.27Z"/><path class="cls-18" d="M203.89,79.5s10,0,20.2-13.67,34.71-24.14,44.33-8c0,0-4.51-18-25.45-10.18s-22.51,27.69-39.7,28.7Z"/><path class="cls-18" d="M175,110.73c-.77.27-15.71,6-4.42,18.6,0,0-9.19-7.19-4.8-13.67C169.86,109.56,175,110.73,175,110.73Z"/><path class="cls-19" d="M197.13,160.7c-24.28,5.41-31.69-10.12-29.41-18.67a7.52,7.52,0,0,1,2.44-4.05c5.46-4.36,13.67-1.08,17,.58.94.46,1.49.79,1.49.79Z"/><path class="cls-20" d="M193.58,157.22h-2.47s-6.55-18.17-22.81-15.28l-.58.09a7.52,7.52,0,0,1,2.44-4.05c5.46-4.36,13.67-1.08,17,.58Z"/><path class="cls-18" d="M173.33,142a13.72,13.72,0,0,1,5.75.93,17.91,17.91,0,0,1,5.11,3,19.49,19.49,0,0,1,3.88,4.43,20.65,20.65,0,0,1,1.41,2.57c.37.9.71,1.81,1,2.73-.57-.8-1-1.64-1.56-2.42s-1.06-1.58-1.69-2.28c-.3-.36-.59-.73-.88-1.1s-.65-.67-1-1a21.54,21.54,0,0,0-2-1.91,23.66,23.66,0,0,0-4.67-3A22.62,22.62,0,0,0,173.33,142Z"/><path class="cls-18" d="M175,150.69l12.53-1.3S181.86,145.6,175,150.69Z"/><path class="cls-19" d="M274.91,171.06a22.9,22.9,0,0,1-4.14,3.89s-25.21,22.6-59,2c-16.95-10.32-23.39-28.43-25.6-43.94a107.07,107.07,0,0,1-.21-28.3C197,82.57,226.28,81.05,244.59,82.5a117.37,117.37,0,0,1,15.58,2.2,170.38,170.38,0,0,1,14.86,25c.39.8.75,1.59,1.11,2.38a90.55,90.55,0,0,1,7.13,22.76C286.36,154.15,279.64,165.62,274.91,171.06Z"/><path class="cls-19" d="M283.27,134.84a12.38,12.38,0,0,1-2.37,1.22,5.85,5.85,0,0,1-1.92.39c-7,.12-6.14-16.2-5.62-22,0-.14,0-.28,0-.39.09-1,.17-1.64.17-1.64A13.92,13.92,0,0,1,275,109.7c1.86-3,5.37-7.42,9.6-8.43a7.46,7.46,0,0,1,6.09,1.15C299.2,108,292.84,128.63,283.27,134.84Z"/><path class="cls-18" d="M280.9,127.17a22.32,22.32,0,0,1-1.7-6.23,19.5,19.5,0,0,1,.19-6.55,11.77,11.77,0,0,1,3-5.89,10.45,10.45,0,0,1,5.79-2.91,13.25,13.25,0,0,0-5,3.6,12.63,12.63,0,0,0-2.51,5.47,24.09,24.09,0,0,0-.46,6.19A47.11,47.11,0,0,0,280.9,127.17Z"/><path class="cls-18" d="M279.79,121.24s10.59-6.85,10.64-6.91S282,111.4,279.79,121.24Z"/><path class="cls-20" d="M290.72,102.42a7.46,7.46,0,0,0-6.09-1.15,9.53,9.53,0,0,0-2.59,1.07c1.55-5.33-2.55-10.15-7.43-12,0,0-.07,0,0,.07,5.1,2.24,8.11,7,6.59,12.53a24,24,0,0,0-6.14,6.8,170.38,170.38,0,0,0-14.86-25,117.37,117.37,0,0,0-15.58-2.2L229,89.3l-6.72,12.6s8.95,3.47,14.54-.84c0,0,17,12.71,28.65-.67a70.06,70.06,0,0,1,8,13.66l.11.26A60.73,60.73,0,0,1,279,136.45c.4,10.21-2.34,21.43-11.55,32.05-11,12.65-4.33,10.1,7.48,2.56,4.73-5.44,11.45-16.91,8.36-36.22C292.84,128.63,299.2,108,290.72,102.42Z"/><path class="cls-18" d="M258.8,107a4.37,4.37,0,0,1-2.32,1.54,6.48,6.48,0,0,1-1.92.14,11.16,11.16,0,0,1-3.73-.83,4.72,4.72,0,0,1-.54-.22,10,10,0,0,1-1.17-.62l-.43-.26a11.12,11.12,0,0,1-1.69-1.35,2.56,2.56,0,0,1-1-1.75c0-1,1.12-1.67,2.09-2a12.94,12.94,0,0,1,4.38-.62,10.61,10.61,0,0,1,1.12,0,16.36,16.36,0,0,1,2.08.33c.31.07.6.15.91.24a3.28,3.28,0,0,1,.52.2C259.21,102.76,260.37,105,258.8,107Z"/><g class="cls-21"><path class="cls-22" d="M253.63,101.11a10.71,10.71,0,0,0-4.51,5.93l-.43-.26a8.65,8.65,0,0,1,3.82-5.72A10.61,10.61,0,0,1,253.63,101.11Z"/><path class="cls-22" d="M257.14,101.88a13.78,13.78,0,0,0-3,2.05,18.34,18.34,0,0,0-3.35,3.95,4.72,4.72,0,0,1-.54-.22c.28-1.46,2-3.11,2.87-4a14.9,14.9,0,0,1,2.55-2.21c.31.07.6.15.91.24A3.28,3.28,0,0,1,257.14,101.88Z"/></g><circle class="cls-20" cx="212.6" cy="156.17" r="6.81"/><circle class="cls-20" cx="260.89" cy="147" r="6.81"/><path class="cls-18" d="M224.32,143.31a18.62,18.62,0,0,0,1.13,3.88,3.12,3.12,0,0,0,2.43,2.17,2.64,2.64,0,0,0,1.61-.35,7.11,7.11,0,0,0,1.54-1.09,25.66,25.66,0,0,0,2.72-3,10.19,10.19,0,0,1-2,3.73,6.47,6.47,0,0,1-1.68,1.47,3.78,3.78,0,0,1-2.33.57,3.53,3.53,0,0,1-2.2-1.1,5.32,5.32,0,0,1-1.07-2A9.06,9.06,0,0,1,224.32,143.31Z"/><path class="cls-20" d="M224.48,150.13s1.29,3.05,5.1,1.3"/><path class="cls-4" d="M263.6,135.42a10.56,10.56,0,0,1-1.12,1.35c0,.06-.11.11-.16.17l0,0a8.74,8.74,0,0,1-6,2.55,10.19,10.19,0,0,1-2.23-.16,9.53,9.53,0,0,1-2.05-.62h0c-4.44-1.93-7.61-7.17-9.35-11.46-.09-.24-.18-.45-.26-.68a.44.44,0,0,1-.05-.15,10.49,10.49,0,0,1-.39-1.2,13.83,13.83,0,0,1-.48-3v-.09a6.91,6.91,0,0,1,0-.91c.11-5.25,3.26-10.11,9.18-10.88a12.31,12.31,0,0,1,10,3,17.64,17.64,0,0,1,4.8,7.85v0a20.88,20.88,0,0,1,.71,3.26A16.14,16.14,0,0,1,263.6,135.42Z"/><path class="cls-23" d="M244,113.89s16.82-10.88,22.23,12.37c0,0-.15-12.56-9.63-15.29C247.81,108.43,244,113.89,244,113.89Z"/><path class="cls-24" d="M265.43,121.2v0c-10.66-9.43-23.47-.36-24,0,.11-5.25,3.26-10.11,9.18-10.88a12.31,12.31,0,0,1,10,3A17.64,17.64,0,0,1,265.43,121.2Z"/><path class="cls-23" d="M252.68,121.36c-5-.62-8.36,2.66-10.44,5,.3,1.21.46,2.39.84,3.59a21.52,21.52,0,0,0,1.82,4.31,11.92,11.92,0,0,0,12.81,5.65,8.7,8.7,0,0,0,3.86-1.9c.21-.19,2.06-2.46,1.87-2.54C262.6,128.86,258.53,122.09,252.68,121.36Z"/><path class="cls-4" d="M217.06,146.67A14.86,14.86,0,0,1,204.75,148a9.09,9.09,0,0,1-1.37-.6h0s-.16-.07-.42-.22a17.71,17.71,0,0,1-6.68-6.66h0s0,0,0,0a20,20,0,0,1-2-4.73c-.17-.59-.31-1.23-.43-1.88-1.81-10.13,6.61-18.27,17.38-17.48,3.36.25,5.94,2.49,7.67,6,0,0,0,0,0,0,.15.32.31.66.46,1a23.86,23.86,0,0,1,.92,2.67,27.5,27.5,0,0,1,.67,3c0,.19.07.39.09.57C222.21,136.83,221,144.51,217.06,146.67Z"/><path class="cls-23" d="M217.06,146.67A14.86,14.86,0,0,1,204.75,148c-1.65-5.62-1.94-13.14,4.15-16.95,5-3.11,9.22-2.6,12.15-1.42C222.21,136.83,221,144.51,217.06,146.67Z"/><path class="cls-24" d="M219.42,123.41c-18.45-5.25-24.71,11.21-25.11,12.33-.17-.59-.31-1.23-.43-1.88-1.8-10.13,6.61-18.27,17.39-17.48C214.94,116.65,217.68,119.3,219.42,123.41Z"/><path class="cls-23" d="M218.88,122.38c-.7-1.13-5.51-8.06-15.74-3.63-11,4.77-8.73,17.63-6.92,21.72a20,20,0,0,1-2-4.73c-.17-.59-.31-1.23-.43-1.88-1.81-10.13,6.61-18.27,17.38-17.48C214.57,116.63,217.15,118.87,218.88,122.38Z"/><path class="cls-20" d="M230.64,135.12l.14-12s-6.52,16.69,1.36,16.21c0,0,5.06-5.11,4.61-6.42S232.09,133.61,230.64,135.12Z"/><path class="cls-18" d="M230.78,123.14a109.22,109.22,0,0,1,.64,11.56l-1-.49a15.48,15.48,0,0,1,3.28-2.15,5,5,0,0,1,2.08-.54,1.79,1.79,0,0,1,1.31.57,1.54,1.54,0,0,1,.13,1.42,11,11,0,0,1-2.26,3.24,29.59,29.59,0,0,1-2.77,2.6c.76-1,1.52-2,2.22-3a11.9,11.9,0,0,0,1.74-3.12.56.56,0,0,0,0-.38,2,2,0,0,0-.41-.07,4.51,4.51,0,0,0-1.52.48,19.46,19.46,0,0,0-3,2l-1.07.83,0-1.32A109.22,109.22,0,0,1,230.78,123.14Z"/><path class="cls-4" d="M233,136.45s2.84-1.94,2-2.59S233,136.45,233,136.45Z"/><path class="cls-18" d="M197.2,104.15s-5.77,16.77-14.9,18.19-1.66-25.6-1.66-25.6Z"/><path class="cls-18" d="M180.58,99.19s14.11,13.64,28.62,13.17,13-10.46,13-10.46,12.46,2.94,10.69-9.41c0,0,24.53,16.66,32.55-9.61C265.48,82.88,217.43,57.86,180.58,99.19Z"/><path class="cls-18" d="M232.49,92s6.91,8.26,18.12,7.18,12.3-11.58,12.3-11.58l3.38,2.68S252.85,118.75,232.49,92Z"/><path class="cls-20" d="M210.84,109c-4.3,1.21-8.55-.54-12.4-2.41-.35-.17-.67.36-.31.54,3.61,1.8,9,4.54,12.88,2.29A.23.23,0,0,0,210.84,109Z"/><path class="cls-20" d="M210.15,106.59a20.59,20.59,0,0,1-6,0c-.05,0-.09.06,0,.09a7.23,7.23,0,0,0,6.09.49C210.49,107,210.51,106.55,210.15,106.59Z"/><path class="cls-20" d="M267.81,63.92c-8.31-9.79-25.62-8.28-34.12.89a.11.11,0,0,0,.16.16c5-4.4,10.94-6.08,17.5-6.51s10.93,1.9,15.75,6.18A.51.51,0,0,0,267.81,63.92Z"/><path class="cls-20" d="M262.37,65.36c-1.8-1.33-4.12-2.82-6.38-3.07-.18,0-.21.26-.05.3a17.88,17.88,0,0,1,5.65,3.3,13.43,13.43,0,0,1,3.81,4.56.34.34,0,0,0,.62-.26A9.34,9.34,0,0,0,262.37,65.36Z"/><path class="cls-20" d="M179.17,83.22c-2,0-3.92.23-5.4,1.71a5.42,5.42,0,0,0-1.2,5.37.55.55,0,0,0,1.07-.15c.16-1.73-.1-3.27,1.3-4.62a8.46,8.46,0,0,1,4.28-1.9C179.45,83.58,179.39,83.23,179.17,83.22Z"/><path class="cls-20" d="M178.23,85.8a3.47,3.47,0,0,0-2,1.33,2.82,2.82,0,0,0-.63,2.33c.08.24.47.29.53,0a5.36,5.36,0,0,1,.5-1.87,3,3,0,0,1,1.73-1.3A.25.25,0,0,0,178.23,85.8Z"/><path class="cls-20" d="M276.1,94.57c-.22-.19-.53.11-.32.32,2,1.89,2.32,4.17,2.34,6.78a.22.22,0,0,0,.44.06C279.46,99.16,278.05,96.25,276.1,94.57Z"/><path class="cls-25" d="M181.17,98.73c-1.34-.92-3.42.63-4.23,1.66-1,1.23-1.81,3.49-.91,4.94a.85.85,0,0,0,1.54-.2,13.25,13.25,0,0,0,.18-1.78,4.13,4.13,0,0,1,.9-1.94,5.58,5.58,0,0,1,1.52-1.3,3,3,0,0,0,1.13-.88A.37.37,0,0,0,181.17,98.73Z"/><path class="cls-25" d="M251.53,65.62a1,1,0,0,0-.92.7c-.06.14-.18.33-.07.48.35.54.53.54,1.09.78,1.33.56,2.62,1,3.91,1.71a15.82,15.82,0,0,1,5.88,4.94.71.71,0,0,0,1.3-.54C262.08,69.42,255.56,65.41,251.53,65.62Z"/><path class="cls-25" d="M264.88,76.61a.58.58,0,0,0,0,1.16A.58.58,0,0,0,264.88,76.61Z"/><path class="cls-19" d="M218.1,255.33c-8.68,5.62-19.32,20.85-27.49,34.09-2,3.16-3.75,6.21-5.37,9l-1.16,2c-3.82,6.72-6.24,11.38-6.24,11.38l-9.41,3.65c-22.3-8.72-36.1-29.15-39.23-34.18-.47-.73-.69-1.13-.69-1.13,7.5-4.53,19-2.72,23.09-1.89v0h.07c.88.18,1.4.32,1.4.32q2.5-4.17,5-7.87a131.64,131.64,0,0,1,24.26-27.17,53.7,53.7,0,0,1,4.31-3.28Z"/><path class="cls-26" d="M218.1,255.33c-8.68,5.62-19.32,20.85-27.49,34.09a78,78,0,0,0-14.7-10.72,98.11,98.11,0,0,0-17.79-8,131.64,131.64,0,0,1,24.26-27.17,53.7,53.7,0,0,1,4.31-3.28Z"/><path class="cls-27" d="M218.1,255.33c-8.68,5.62-19.32,20.85-27.49,34.09-2,3.16-3.75,6.21-5.37,9l-1.16,2-15.17-12.1,7-9.62L188.11,262l-5.73-18.39a53.7,53.7,0,0,1,4.31-3.28Z"/><path class="cls-28" d="M185.24,298.41c-2.67,4.64-4.81,8.53-6.07,10.89-.86,1.59-1.33,2.5-1.33,2.5l-9.41,3.65c-11.53-4.52-20.79-12.16-27.49-19.19a97.49,97.49,0,0,1-11.74-15c-.47-.73-.69-1.13-.69-1.13a19,19,0,0,1,4.93-2,38.94,38.94,0,0,1,14.31-.49c1.59.2,2.92.45,3.85.63v0h.07A75.84,75.84,0,0,1,185.24,298.41Z"/><path class="cls-4" d="M143,294.05a11.87,11.87,0,0,1-2.05,2.21,97.49,97.49,0,0,1-11.74-15c-.47-.73-.69-1.13-.69-1.13,5.77-3.49,13.94-3.22,19.24-2.52C148.72,281.35,148.26,286.81,143,294.05Z"/><path class="cls-4" d="M179.17,309.3c-.86,1.59-1.33,2.5-1.33,2.5l-9.41,3.65c-11.53-4.52-20.79-12.16-27.49-19.19a97.49,97.49,0,0,1-11.74-15c-.47-.73-.69-1.13-.69-1.13a19,19,0,0,1,4.93-2C141.17,281.35,166.71,292.93,179.17,309.3Z"/><path class="cls-23" d="M177.84,311.8l-9.4,3.65c-22.3-8.72-36.11-29.15-39.24-34.18C137.65,284.76,160.36,295.1,177.84,311.8Z"/><path class="cls-4" d="M158.64,281a3.78,3.78,0,0,0-3.62-1.88s-.05,0,0,.05c.54.29,1.14.48,1.67.79a3.72,3.72,0,0,1,1.79,2.66,35,35,0,0,0,1.3,4.56c.11.26.53.13.52-.14A17.45,17.45,0,0,0,158.64,281Z"/><path class="cls-4" d="M165.52,283.92a3.13,3.13,0,0,0-3-1.82c-.08,0-.1.09,0,.13.42.29.89.39,1.32.66a3.31,3.31,0,0,1,1.28,1.79,12.69,12.69,0,0,1,.59,3.23.41.41,0,0,0,.81.1C166.87,286.66,166.17,285.1,165.52,283.92Z"/><path class="cls-29" d="M180.7,250.81c-6.1,3.22-11.39,8.58-15.23,14.25-.16.23.19.49.39.3,4.94-4.87,10.21-9.27,15.3-14C181.49,251.11,181.07,250.62,180.7,250.81Z"/><path class="cls-19" d="M352.54,284.73c-3.3,10.69-28,25.42-28,25.42l-15.21-4.3-7.29-2.06c-.59-3.22-1.3-6.35-2.12-9.35a114.84,114.84,0,0,0-4.61-13.57A121.05,121.05,0,0,0,262,235c-1-.79-1.51-1.2-1.51-1.2s1.34-.76,3.66-1.82c5.61-2.55,17-6.86,28.71-6.23a35.92,35.92,0,0,1,11.84,2.57l.78.34c6.85,3,12.28,8.47,16.45,14.29a83,83,0,0,1,10.33,20.34c.79,2.29,1.17,3.7,1.17,3.7,10.85-1.34,16.66,1.32,18.94,5.89C354.06,276.09,353.91,280.29,352.54,284.73Z"/><path class="cls-26" d="M332.3,263.25c-17.2-2.62-30.18,9.3-36.95,17.63-12.64-30.77-34.82-47.12-34.82-47.12s24.91-14.09,45-5.13C321.21,235.61,329.44,255.07,332.3,263.25Z"/><path class="cls-28" d="M352.54,284.73a13.85,13.85,0,0,1-1.72,3.51c-6.52,10.13-26.24,21.91-26.24,21.91l-22.5-6.36c-.21-1.17-.44-2.32-.7-3.46-.42-2-.89-4-1.42-5.89,9.59-13.62,22.89-21.94,29.48-25.49,2.5-1.34,4-2,4-2,10.85-1.34,16.66,1.32,18.94,5.89a11.74,11.74,0,0,1,.58,1.42C354,277.28,353.71,280.91,352.54,284.73Z"/><path class="cls-4" d="M352.54,284.73a13.85,13.85,0,0,1-1.72,3.51c-4.49.83-9.79-.2-15-5.9s-6.55-10-6.39-13.39c2.5-1.34,4-2,4-2,10.85-1.34,16.66,1.32,18.94,5.89a11.74,11.74,0,0,1,.58,1.42C354,277.28,353.71,280.91,352.54,284.73Z"/><path class="cls-4" d="M352.54,284.73c-3.3,10.69-28,25.42-28,25.42l-22.5-6.36c-.21-1.17-.44-2.32-.7-3.46,6.64-7.59,34.78-37.87,51.61-26.07C354,277.28,353.71,280.91,352.54,284.73Z"/><path class="cls-23" d="M352.54,284.74c-3.3,10.68-28,25.42-28,25.42l-22.49-6.36s30-33.64,50.32-31C354.06,276.1,353.91,280.3,352.54,284.74Z"/><path class="cls-4" d="M323.51,272.19c-2.53,0-1.42,4.39-1.06,5.69a.2.2,0,0,0,.39-.05c.06-.92,0-1.8,0-2.72a3.91,3.91,0,0,1,.14-1.32,8.18,8.18,0,0,1,.73-1.2A.27.27,0,0,0,323.51,272.19Z"/><path class="cls-4" d="M318.8,275.65a4.55,4.55,0,0,0-3.58,2.63c-.35.84-.59,3.1.61,3.39a.24.24,0,0,0,.3-.18c.26-1-.2-2.08.19-3.06.46-1.17,1.7-1.7,2.59-2.5A.16.16,0,0,0,318.8,275.65Z"/><path class="cls-27" d="M292,245.18s17.17,31.2,17.42,60.67l-7.29-2.06c-.59-3.22-1.3-6.35-2.12-9.35a114.84,114.84,0,0,0-4.61-13.57A121.05,121.05,0,0,0,262,235l2.15-3c5.61-2.55,17-6.86,28.71-6.23l11.84,2.57.78.34c6.85,3,12.28,8.47,16.45,14.29Z"/><path class="cls-29" d="M328,257.06c-1.86-4.42-5.79-7.5-8.07-11.64a.49.49,0,0,0-.88.38c.67,2.12,2.31,3.82,3.57,5.63a62.49,62.49,0,0,0,4.36,6.22C327.34,258.08,328.21,257.62,328,257.06Z"/><path class="cls-29" d="M173.55,212.65s-23.25,28.74,13,35S173.55,212.65,173.55,212.65Z"/><path class="cls-29" d="M337.75,184.19s41.08,26.6-5.45,42.44S337.75,184.19,337.75,184.19Z"/><path class="cls-4" d="M344.88,142.56,256.63,170v2.84c1.58,4-3.77,3.81-3.77,3.81L243,173.5l-1.58.41c-40-18.36-81.18.37-81.89.71-.28.13,0-.84.49-2.11.13-.37.27-.76.44-1.17s.44-1.12.65-1.63c.53-1.27,1-2.27,1-2.27,8.8-3.95,23.3-8.35,23.3-8.35l-18.24,2.2c58.89-16.25,79.46,8.15,79.46,8.15l4.22,4.4a3.75,3.75,0,0,1-.84-3,9.79,9.79,0,0,1,1-3,61.66,61.66,0,0,1,24-26.42,69,69,0,0,1,27.12-9.18,94.3,94.3,0,0,1,23.62.12A87.34,87.34,0,0,1,338.71,135a2.78,2.78,0,0,0,.73.22,27.58,27.58,0,0,0-10.55,3.35l11-1.22,2.74,2.87Z"/><path class="cls-24" d="M344.88,142.56l-87.64,29.18-6.39,2.11c.29-.61,11.88-22.83,30-31.91,0,0-16.66,13.82-21.28,21a75.48,75.48,0,0,1,36.53-23.55c-1.45.57-24.64,9.86-35.15,25,1.58-1.67,30.64-31.66,81.66-24.14Z"/><path class="cls-24" d="M251.36,173.87,243,173.5l-1.58.41c-40-18.36-81.18.37-81.89.71-.28.13,0-.84.49-2.11,7.71-3.45,19.58-7.12,20.46-7.4a80.86,80.86,0,0,0-20,6.23c.22-.55.44-1.12.65-1.63,30.72-15.36,71.4-4.23,72.93-3.81-16.2-7.27-36.1-7.8-36.1-7.8C224.71,156,251.36,173.87,251.36,173.87Z"/><path class="cls-30" d="M267.43,236.79s-4.65,7.69-14.65,2.54l-.38-2.28-.54-3.11-8.55-50.26-.39-2.32-.86-5-.24-1.39-.36-2.2s11.4,3.22,15.17-2.77l.42,2.57.21,1.32.76,4.7.4,2.49,8.18,50.56.45,2.86Z"/><path class="cls-31" d="M267.05,234.47c-1.83,1.58-6.63,5.09-14.65,2.58l-.54-3.11c2.45.52,8.92,1.69,14.74-2.33Z"/><path class="cls-32" d="M257.05,172.54c-5.28,3.91-12.38,3-15.23,2.4l-.36-2.2s11.4,3.22,15.17-2.77Z"/><path class="cls-31" d="M258.42,181.05c-1.42,1.29-5.18,4.33-15.11,2.63l-.39-2.32c2.87.79,9.44,1.85,15.1-2.8Z"/><path class="cls-28" d="M252.78,239.33l-57,26.29-40.58-88.77c41-22.34,81-6.34,85.75-4.31.31.12.47.2.47.2l.36,2.16v0l10.79,63.39Z"/><path class="cls-30" d="M199.32,258.66l-.28-.6L162.87,180l.62-.26C202.6,163,237.21,177.8,237.55,178l.32.14,10.7,58.29Zm-34.69-78L200,256.92l47.12-21.3L236.7,179C233.17,177.6,201,165.41,164.63,180.68Z"/><path class="cls-32" d="M252.78,239.33l-57,26.29-40.58-88.77c43.66-23.79,86.22-4.11,86.22-4.11l.36,2.16v0s-38.48-20.63-83.7,2.41l38.36,86.73,56.13-25.75Z"/><path class="cls-27" d="M252.78,239.33l-97.54-62.48c41-22.34,81-6.34,85.75-4.31l11.62,65.79Z"/><path class="cls-28" d="M347.54,143.22l0,.12-13.31,97.34s-42.11-3.18-66.78-3.89l-.15-.87-10.47-64.79-.18-1.16S297.71,129.9,347.54,143.22Z"/><path class="cls-30" d="M330.11,234.45l-56.47-2.2-10.2-62.56.31-.24c.39-.3,39.06-29.85,77.05-22.06l.6.12ZM274.76,231l54.2,2.1,11-84.52c-35.43-6.88-71.37,18.94-75.07,21.7Z"/><path class="cls-32" d="M347.54,143.22l-13.33,97.46s-42.11-3.18-66.78-3.89l-.15-.87,66,3.16,12.84-95c-49.08-9.54-83.77,21.63-89.32,27l-.18-1.16S297.71,129.9,347.54,143.22Z"/><path class="cls-27" d="M347.54,143.22l0,.12-80.24,92.58-10.47-64.79-.18-1.16S297.71,129.9,347.54,143.22Z"/><path class="cls-19" d="M346.86,199.1s-13-8.48-14.56-6.92,7.5,7.57,7.5,7.57-10.36-2.72-11-.26,10.61,3.2,10.61,3.2-10.09,2-9.83,3.55,9.35,0,9.35,0-9,4.41-7.54,6,6.92-1.5,6.92-1.5S354,216.23,346.86,199.1Z"/><path class="cls-19" d="M172.34,228.84c.73-1.5,2.22-2.62,3.35-3.79,1.72-1.78,3.46-3.53,5.27-5.21,1.65-1.54,3.95-4.15,6.25-4.71a1.5,1.5,0,0,1,1-.07c2.61,1.13-9.64,12.92-9.64,12.92s11.68-8,13.95-6.1-12.81,8.88-12.81,8.88,12.58-3.46,13.6-2.44-11.53,5.89-11.53,5.89,10.06-.9,10.74.68-10.68,3.28-10.74,3.29c-4.79.71-11.29-2.8-9.71-8.56A4.3,4.3,0,0,1,172.34,228.84Z"/><path class="cls-4" d="M498.82,458.29l-139.27,3s42.8-1.21,47.63-11.15-2.11-31.66,11.75-34.67S437,436,437,436s7.84-17.19,22-3.92c0,0,5.43-17.79,25.63-13.87S498.82,458.29,498.82,458.29Z"/><path class="cls-4" d="M154.42,391.55,0,394V328.78c15.24,9.3,13.93,42,13.93,42s1.85-13.87,7.86-13.4,6.47,19.41,6.47,19.41,6.93-25,26.34-24.5,26.11,23.57,26.11,23.57c10.86-12,24.73-9.7,33,2.31S154.42,391.55,154.42,391.55Z"/><path class="cls-33" d="M393.39,248.36c-10.38,9.42-29.62,22.29-41.4,29.88"/><path class="cls-33" d="M144.81,313.48c-7.48-.18-15,.23-21.67,3.44a28.42,28.42,0,0,0-14.78,17.47c-2.56,8.86-.54,18.64,4.08,26.62s11.65,14.35,19.26,19.57a106.26,106.26,0,0,0,50.74,18"/><path class="cls-34" d="M78.48,62.35S121.73,10.69,160,33.48c46.41,27.65-101.63,148.09-2.34,230.63"/><path class="cls-35" d="M42.86,148.67l-1.53-12.22L50,144.88l13-5.76-6.24,9.55s9,11.28,8.66,11.17-12.85-4.47-12.85-4.47L45,171.19l-.51-14.76-13.23.25Z"/><polygon class="cls-35" points="395.44 142.49 404.27 132.91 404.27 144.36 415.32 145.33 406.96 150.59 409.64 165.68 399.23 153.06 382.19 161.89 392.6 149.46 384.09 140.97 395.44 142.49"/><path class="cls-35" d="M401,371.48l-1.11-13.64L407.49,369l8.93-5.58-4.15,9.4s9.25,13,8.29,11.76-12.11-6.34-12.11-6.34S397.93,391,398.25,390s2.23-12.12,2.23-12.12l-12.75-2.55Z"/><polygon class="cls-35" points="69.89 195.67 73.31 190.07 70.64 184.08 77.03 185.6 81.9 181.21 82.42 187.75 88.11 191.03 82.05 193.55 80.69 199.97 76.42 194.98 69.89 195.67"/><polygon class="cls-35" points="444.36 354 438.27 354.7 435.39 360.11 432.85 354.54 426.82 353.47 431.33 349.33 430.48 343.26 435.81 346.28 441.32 343.59 440.1 349.6 444.36 354"/><path class="cls-12" d="M132.23,419.87a10.51,10.51,0,0,1-10.5,10.51,9.83,9.83,0,0,1-1.34-.09,10.5,10.5,0,0,1,0-20.83,9.83,9.83,0,0,1,1.34-.09A10.5,10.5,0,0,1,132.23,419.87Z"/><path class="cls-36" d="M115.59,417.4c-.4,1-1.26,1.53-1.9,1.25s-.85-1.27-.44-2.24,1.26-1.52,1.91-1.25S116,416.44,115.59,417.4Z"/><path class="cls-36" d="M117.28,415.27c-.19.3-.51.44-.72.31s-.21-.48,0-.79.52-.43.72-.3S117.48,415,117.28,415.27Z"/><path class="cls-36" d="M116.73,412.93c-.17.26-.45.38-.63.27s-.18-.42,0-.68.45-.38.62-.27S116.89,412.67,116.73,412.93Z"/><path class="cls-37" d="M121.73,409.3a9.84,9.84,0,0,0-1.34.08,10.47,10.47,0,0,1,6.74,3.73h0c-.32.1-.47.57-.32,1.06s.52.8.85.7a.61.61,0,0,0,.37-.57,10.91,10.91,0,0,1,.82,1.64l-.09,0c-.45.13-.65.79-.45,1.47s.72,1.1,1.17,1a10.7,10.7,0,0,1,.1,1.39,10.42,10.42,0,0,1-.27,2.31,1.16,1.16,0,0,0-.75-.87c-.68-.18-1.45.5-1.71,1.51s.07,2,.75,2.16a1,1,0,0,0,.7-.1,10.49,10.49,0,0,1-7.87,5.4,9.83,9.83,0,0,0,1.34.09,10.5,10.5,0,0,0,0-21Z"/><path class="cls-37" d="M126.84,416.3c.16,0,.23-.27.16-.5s-.26-.38-.41-.33-.23.27-.16.5S126.68,416.35,126.84,416.3Z"/><path class="cls-37" d="M125.52,425.21c.22-.43.17-.91-.12-1.06s-.72.07-1,.51-.17.91.12,1.07S125.29,425.65,125.52,425.21Z"/><path class="cls-38" d="M324.56,45.17a13.51,13.51,0,0,1-.7,1.5,17.54,17.54,0,0,1-.95,1.59,15.79,15.79,0,0,1-2.94,3.2,11.63,11.63,0,0,1-1.41,1,15.72,15.72,0,0,1-23.91-16.72,13.12,13.12,0,0,1,.49-1.7A15.26,15.26,0,0,1,297,30.42a12.59,12.59,0,0,1,1-1.29,11.72,11.72,0,0,1,1.14-1.19,15.72,15.72,0,0,1,18.52-2.3q.61.34,1.2.75A15.72,15.72,0,0,1,324.56,45.17Z"/><path class="cls-20" d="M317,44.46a.63.63,0,1,0-.55-.58A.57.57,0,0,0,317,44.46Z"/><path class="cls-39" d="M299.36,30.77a.81.81,0,0,0,1-.47.74.74,0,1,0-1,.47Z"/><path class="cls-39" d="M300.36,28.7a.33.33,0,0,0,.4-.18.28.28,0,1,0-.4.18Z"/><path class="cls-39" d="M299.63,33.07c.25.11.67-.23.95-.74s.29-1,0-1.12-.67.23-.94.74S299.39,33,299.63,33.07Z"/><path class="cls-20" d="M319.08,40.59a.63.63,0,0,0-.09-1.24.56.56,0,0,0-.46.65A.57.57,0,0,0,319.08,40.59Z"/><path class="cls-20" d="M317.39,47.33a1,1,0,0,0-.17-1.33,1.06,1.06,0,0,0-1.1,1.76A1,1,0,0,0,317.39,47.33Z"/><path class="cls-20" d="M318.86,26.39q-.58-.41-1.2-.75a17.17,17.17,0,0,1,4,10.58,1.13,1.13,0,0,0-.8-.27,1.62,1.62,0,0,0,.23,3.17,1.19,1.19,0,0,0,.44-.14c0,.32-.09.63-.15.94a.88.88,0,0,0-.2-.09,1.39,1.39,0,0,0-.5,2.68c-.18.49-.37,1-.58,1.43a.57.57,0,0,0-.2-.21,1.06,1.06,0,0,0-1.1,1.76.72.72,0,0,0,.43.1A17.27,17.27,0,0,1,304.4,54h-.11a15.78,15.78,0,0,0,14.27-1.52,11.63,11.63,0,0,0,1.41-1,15.79,15.79,0,0,0,2.94-3.2,17.54,17.54,0,0,0,.95-1.59,13.51,13.51,0,0,0,.7-1.5A15.72,15.72,0,0,0,318.86,26.39Z"/><path class="cls-35" d="M325.48,46.13c-.29-.32-.6-.64-.92-1a12,12,0,0,1-.71,1.5c.17.17.34.34.49.51,3.3,3.58,3.65,5.31,3.33,5.78s-2.07.77-6.59-1c-.37-.13-.73-.3-1.12-.46a78.63,78.63,0,0,1-12.72-7.27,75,75,0,0,1-12.1-10.11.12.12,0,0,1-.06-.06c-3.3-3.58-3.63-5.33-3.31-5.79.12-.2.5-.35,1.21-.35a14.86,14.86,0,0,1,5,1.25,12.82,12.82,0,0,1,1.14-1.19l-.22-.09c-4.56-1.82-7.4-2-8.42-.49s.14,4.09,3.44,7.69c.23.24.46.49.71.73a76.78,76.78,0,0,0,11.71,9.66,80.76,80.76,0,0,0,12.2,7.07c.67.3,1.33.59,2,.84a17.25,17.25,0,0,0,5.92,1.48,2.79,2.79,0,0,0,2.48-1C330,52.34,328.8,49.75,325.48,46.13Z"/><polygon class="cls-40" points="69.54 43.84 84.86 65.82 49.85 95.01 49.85 94.18 69.54 43.84"/><polygon class="cls-4" points="49.85 94.18 95.18 45.99 75.3 46.49 49.85 94.18"/><polygon class="cls-4" points="49.85 94.18 54.34 30.21 69.54 43.84 49.85 94.18"/><path class="cls-40" d="M442.52,186.39l-19.68,11.15,15.64,23.87,4.73-2.56,2.26-3.54A97.66,97.66,0,0,0,442.52,186.39Z"/><path class="cls-4" d="M442.52,186.39s9,29.27,1.4,37.48-10.21-.23-10.21-.23l-.19-1-4.14-22.22-22.24-12.77,17.44-14.91,1.15-1s17.94,27.08,17.48,47.13C443.21,218.85,447.34,210.11,442.52,186.39Z"/><path class="cls-24" d="M438.61,220.41c-.91,2.62-2.76,3.08-5.09,2.19l-4.14-22.22-22.24-12.77,17.44-14.91,0,0S443,207.89,438.61,220.41Z"/><path class="cls-40" d="M437.85,222.56c.15-.17,5.46-6.76,1.54-20.94,0,0,5,15.61.4,23.6S437.85,222.56,437.85,222.56Z"/><path class="cls-41" d="M445.15,222.11c-.16,1-1.51,2.51-3.55,4.38-.57.52-1.2,1.06-1.87,1.63-7,5.87-18.9,13.82-24.48,17.47l-1.49,1-1.58,1c-5.8,1.37-6.2-5-6.2-5l2.55-1.95,1.7-1.3,23.83-18.21,1.45-1.11,3.36-2.56s1.62,5.69,3.64,6.36C443.69,224.18,445,222.31,445.15,222.11Z"/><path class="cls-28" d="M441.6,226.49c-.57.52-1.2,1.06-1.87,1.63-3.27-1.44-4.92-4.84-5.67-7l1.45-1.11C437.39,224.07,439.84,225.78,441.6,226.49Z"/><path class="cls-28" d="M415.25,245.59l-1.49,1a8.56,8.56,0,0,1-5.23-5.95l1.7-1.3C410.39,242.71,413.42,244.7,415.25,245.59Z"/><path class="cls-42" d="M438.86,217.42s-9.32-35.89-37.14-40c-1.09-.16-31.73,40-31.73,40s24.67,9.41,36,25.19Z"/><path class="cls-41" d="M406.32,240.45l30.19-23.82s-7.21-27.69-34.2-37.43L373.66,216S395.68,223,406.32,240.45Z"/><path class="cls-40" d="M410,56.83l-1.85-1.31s-5.63,3.17-7.84,5.91l-5.48-5.15S385.71,68,391.45,86.86l-1,1s-10.1-12.23-21.94-9l39.63,25.36,17.26-33.31Z"/><path class="cls-4" d="M419,59c-.44,0-7.32-3.51-7.32-3.51s-17.13,12.29-18.88,30.89c0,0-1.61-19.18,15.37-30.89,0,0-16.4,6.58-16.54,30.89a41.13,41.13,0,0,1,3.22-30.13s-8.79,12.12-4.1,31c0,0-9.08-11.71-22.26-8.49,0,0,15.08-.45,21.53,9.58,0,0-13.83-9.4-23-3.78l23.45,9.67,9.08-4.78Z"/><path class="cls-38" d="M394,88.37s4.42-23.24,23.66-32.09l36.49,19.77S431.56,100.68,429,109.22Z"/><path class="cls-20" d="M396.93,85.45s8.26-21.67,20.94-27.09l32.87,18.47s-16.86,14.65-22.65,28.32Z"/><polygon class="cls-38" points="388.97 89.56 362.93 83.67 410.3 109.94 425.37 112.53 388.97 89.56"/><polygon class="cls-20" points="388.97 90.63 370.61 86.86 409.9 108.64 420.12 110.44 388.97 90.63"/><path class="cls-43" d="M425.37,112.53l-5.16-3.26-1.16-.73h0l-24-15.12-.58-.37-5-3.14c1.87.64,4.82-3,4.82-3l3.23,2,.79.5L423,104.41l.81.5,5.57,3.41C430.29,113.64,425.37,112.53,425.37,112.53Z"/><path class="cls-42" d="M423.77,104.91a5.28,5.28,0,0,1-3.56,4.36l-1.16-.73a6.63,6.63,0,0,0,3.91-4.13Z"/><path class="cls-42" d="M398.36,89.34a4.9,4.9,0,0,1-3.28,4.08l-.58-.37a4.83,4.83,0,0,0,3.07-4.21Z"/><path class="cls-4" d="M461.51,104.93l-.1-.09a2.09,2.09,0,1,0,0,3l.1-.09A2,2,0,0,0,461.51,104.93Z"/><path class="cls-4" d="M456.36,115.78a3.62,3.62,0,0,0-1.51-3.07,3.8,3.8,0,0,0-5,.3,4.2,4.2,0,0,0-1.13,1.9,3.59,3.59,0,0,0,2.06,4.19,1.94,1.94,0,0,0,.24.15,3,3,0,0,0,3.52-.45,3.09,3.09,0,0,0,.46-.65A2.85,2.85,0,0,0,456.36,115.78Z"/><path class="cls-4" d="M467.19,119.16c-3.14,0-3.15,4.88,0,4.88S470.33,119.16,467.19,119.16Z"/><path class="cls-4" d="M466.8,138.69a1.63,1.63,0,0,0,0,3.25A1.63,1.63,0,0,0,466.8,138.69Z"/><path class="cls-4" d="M50.58,261.91a1.16,1.16,0,0,0,1.25,1.95A1.16,1.16,0,0,0,50.58,261.91Z"/><path class="cls-4" d="M44.48,279.31a5.81,5.81,0,1,0,8,1.76A5.87,5.87,0,0,0,44.48,279.31Z"/><path class="cls-4" d="M76.86,300.3l-.21-.13a2.85,2.85,0,0,0-4.12,2.64l0,.24a3,3,0,0,0,1.61,2.52l.23.08a2.83,2.83,0,0,0,4-2.59l0-.25A2.92,2.92,0,0,0,76.86,300.3Z"/><path class="cls-4" d="M79.07,464.28a2.38,2.38,0,1,0,2.37,2.37A2.41,2.41,0,0,0,79.07,464.28Z"/><path class="cls-4" d="M88,441.47a5,5,0,1,0,5,5A5.1,5.1,0,0,0,88,441.47Z"/><path class="cls-4" d="M67.81,448.34c-3.74,0-3.75,5.82,0,5.82S71.56,448.34,67.81,448.34Z"/></g></g></g></svg>